<svg width="64" height="64" viewBox="0 0 64 64" fill="none" xmlns="http://www.w3.org/2000/svg">
<path d="M32 4C32.9678 4.00001 33.935 4.04943 34.8977 4.14807L35.1023 2.15857C32.3443 1.87559 29.5606 1.9717 26.8287 2.44422L27.1713 4.41468C28.766 4.1385 30.3815 3.99977 32 4Z" fill="url(#paint0_linear_106_527)"/>
<path d="M15.5868 9.31238L14.4131 7.693C10.5671 10.4722 7.4362 14.1251 5.27811 18.351C3.12001 22.5769 1.99648 27.2549 2 32C1.98691 36.6155 3.04968 41.1706 5.104 45.3037L6.896 44.4158C4.97912 40.5584 3.98756 36.3074 4 32C3.99643 27.5709 5.04507 23.2044 7.05953 19.26C9.074 15.3155 11.9967 11.9061 15.5868 9.31238Z" fill="url(#paint1_linear_106_527)"/>
<path d="M32.9662 59.9836L33.0338 61.9824C35.8473 61.8887 38.6335 61.3987 41.3101 60.527L40.6899 58.6256C38.1919 59.439 35.5918 59.8962 32.9662 59.9836Z" fill="url(#paint2_linear_106_527)"/>
<path d="M14 31H16V54H14V31Z" fill="url(#paint3_linear_106_527)"/>
<path d="M20 31H22V54H20V31Z" fill="url(#paint4_linear_106_527)"/>
<path d="M26 31H28V54H26V31Z" fill="url(#paint5_linear_106_527)"/>
<path d="M61.4335 32.9651L43.4101 24.2954C42.6929 23.9515 41.8686 23.9061 41.118 24.1691C40.3674 24.4322 39.7518 24.9822 39.4062 25.6986L34 36.9378V27C33.9985 25.6744 33.4712 24.4035 32.5339 23.4661C31.5965 22.5288 30.3256 22.0015 29 22H25V6C25 4.93913 24.5786 3.92172 23.8284 3.17157C23.0783 2.42143 22.0609 2 21 2C19.9391 2 18.9217 2.42143 18.1716 3.17157C17.4214 3.92172 17 4.93913 17 6V22H13C11.6744 22.0015 10.4035 22.5288 9.46613 23.4661C8.52877 24.4035 8.0015 25.6744 8 27V53C8.00121 54.0269 8.31809 55.0287 8.9077 55.8695C9.4973 56.7104 10.3311 57.3496 11.2962 57.7007C11.0821 58.1457 10.9812 58.6366 11.0024 59.13C11.0235 59.6233 11.1662 60.1038 11.4176 60.5288C11.669 60.9538 12.0214 61.3102 12.4436 61.5663C12.8658 61.8225 13.3446 61.9704 13.8377 61.9971C14.3308 62.0238 14.8228 61.9284 15.2702 61.7193C15.7175 61.5102 16.1063 61.1939 16.4021 60.7985C16.6979 60.4031 16.8916 59.9408 16.9659 59.4526C17.0401 58.9645 16.9928 58.4655 16.828 58H25.172C25.0074 58.4654 24.9601 58.9643 25.0345 59.4523C25.1089 59.9404 25.3025 60.4025 25.5983 60.7978C25.8941 61.193 26.2828 61.5092 26.7301 61.7182C27.1773 61.9272 27.6693 62.0226 28.1622 61.9959C28.6552 61.9693 29.1339 61.8213 29.556 61.5653C29.9781 61.3092 30.3305 60.953 30.5819 60.5281C30.8333 60.1032 30.9759 59.6229 30.9972 59.1297C31.0185 58.6365 30.9177 58.1456 30.7038 57.7007C31.4899 57.4138 32.1918 56.9349 32.7455 56.3075C33.2993 55.6801 33.6874 54.9243 33.8746 54.1086L47.9958 60.9011C48.1142 60.9582 48.2426 60.9913 48.3737 60.9987C48.5049 61.006 48.6362 60.9875 48.7601 60.944C48.8841 60.9006 48.9983 60.8331 49.0962 60.7455C49.194 60.6579 49.2737 60.5519 49.3305 60.4335L61.9012 34.2997C62.0161 34.0607 62.0314 33.7858 61.9437 33.5355C61.856 33.2852 61.6725 33.08 61.4335 32.9651ZM42.1114 25.9991C42.2609 25.9991 42.4085 26.0328 42.5432 26.0978L59.6653 34.3339L58.7984 36.1362L41.6762 27.9003C41.4376 27.7851 41.2544 27.5801 41.1666 27.3301C41.0789 27.0801 41.0938 26.8056 41.2081 26.5666L41.2086 26.5656C41.2905 26.3957 41.4186 26.2524 41.5783 26.1523C41.7381 26.0521 41.9228 25.999 42.1114 25.9991ZM19 6C19 5.46957 19.2107 4.96086 19.5858 4.58579C19.9609 4.21071 20.4696 4 21 4C21.5304 4 22.0391 4.21071 22.4142 4.58579C22.7893 4.96086 23 5.46957 23 6V22H19V6ZM15 59C15 59.1978 14.9413 59.3911 14.8315 59.5556C14.7216 59.72 14.5654 59.8482 14.3827 59.9239C14.2 59.9996 13.9989 60.0194 13.8049 59.9808C13.6109 59.9422 13.4327 59.847 13.2929 59.7071C13.153 59.5673 13.0578 59.3891 13.0192 59.1951C12.9806 59.0011 13.0004 58.8 13.0761 58.6173C13.1518 58.4346 13.28 58.2784 13.4444 58.1685C13.6089 58.0586 13.8022 58 14 58C14.2651 58.0003 14.5193 58.1058 14.7068 58.2932C14.8942 58.4807 14.9997 58.7349 15 59ZM28 60C27.8022 60 27.6089 59.9414 27.4444 59.8315C27.28 59.7216 27.1518 59.5654 27.0761 59.3827C27.0004 59.2 26.9806 58.9989 27.0192 58.8049C27.0578 58.6109 27.153 58.4327 27.2929 58.2929C27.4327 58.153 27.6109 58.0578 27.8049 58.0192C27.9989 57.9806 28.2 58.0004 28.3827 58.0761C28.5654 58.1518 28.7216 58.28 28.8315 58.4444C28.9414 58.6089 29 58.8022 29 59C28.9997 59.2651 28.8942 59.5193 28.7068 59.7068C28.5193 59.8942 28.2651 59.9997 28 60ZM29 56H13C12.2046 55.9991 11.4421 55.6827 10.8797 55.1203C10.3173 54.5579 10.0009 53.7954 10 53V27C10.0009 26.2046 10.3173 25.4421 10.8797 24.8797C11.4421 24.3173 12.2046 24.0009 13 24H17V29H19V24H23V29H25V24H29C29.7954 24.0009 30.5579 24.3173 31.1203 24.8797C31.6827 25.4421 31.9991 26.2046 32 27V41.0957L28.5694 48.2278C28.3986 48.5828 28.2994 48.968 28.2775 49.3614C28.2556 49.7547 28.3114 50.1485 28.4417 50.5203C28.572 50.8921 28.7742 51.2346 29.0369 51.5283C29.2995 51.8219 29.6174 52.0609 29.9725 52.2317L31.9923 53.2032C31.94 53.9615 31.6022 54.6718 31.0469 55.1908C30.4915 55.7098 29.7601 55.999 29 56ZM47.9616 58.6654L30.8394 50.4294C30.6004 50.3145 30.4169 50.1092 30.3292 49.8589C30.2415 49.6086 30.2568 49.3337 30.3718 49.0947L39.9827 29.114C40.2226 29.3559 40.5022 29.555 40.8093 29.7025L57.9315 37.9385L47.9616 58.6654Z" fill="url(#paint6_linear_106_527)"/>
<path d="M48.0529 35.4061C46.8053 34.8061 45.4078 34.5895 44.0371 34.7837C42.6664 34.9779 41.384 35.5742 40.3522 36.4971C39.3204 37.4201 38.5855 38.6283 38.2403 39.969C37.8951 41.3096 37.9553 42.7225 38.4131 44.029C38.8709 45.3355 39.7059 46.4769 40.8124 47.3089C41.9189 48.1408 43.2473 48.626 44.6295 48.703C46.0117 48.7801 47.3858 48.4455 48.5779 47.7416C49.77 47.0377 50.7266 45.9962 51.3267 44.7487C52.1293 43.0753 52.2354 41.1519 51.6216 39.4004C51.0079 37.649 49.7244 36.2125 48.0529 35.4061ZM49.8672 42.937L48.0743 42.0746C48.4749 40.9693 48.6716 39.8005 48.655 38.625L48.6497 38.2784C49.2269 38.8906 49.6409 39.6381 49.8537 40.4521C50.0664 41.2662 50.0711 42.1206 49.8672 42.937ZM43.6504 44.9022L43.387 45.1062L43.3819 44.7731C43.37 43.9082 43.5037 43.0475 43.7773 42.2269L45.3928 43.004C44.9225 43.73 44.3335 44.3716 43.6504 44.9022ZM44.6442 40.4247C45.1145 39.6987 45.7035 39.057 46.3867 38.5264L46.6501 38.3224L46.6552 38.6555C46.6671 39.5204 46.5334 40.3812 46.2598 41.2018L44.6442 40.4247ZM45.0265 36.7146C45.1625 36.7146 45.299 36.722 45.4355 36.7333L45.1623 36.9448C44.2335 37.6656 43.4431 38.5489 42.8297 39.5519L41.0388 38.6904C41.5067 38.0765 42.1099 37.5788 42.8016 37.2361C43.4932 36.8934 44.2546 36.7149 45.0265 36.7146ZM40.1692 40.4914L41.9628 41.3541C41.5622 42.4594 41.3655 43.6281 41.3821 44.8036L41.3875 45.1534C40.809 44.5414 40.394 43.7934 40.1811 42.9785C39.9682 42.1636 39.9641 41.3082 40.1692 40.4914ZM44.6009 46.6959L44.8748 46.4838C45.8036 45.763 46.5939 44.8797 47.2074 43.8768L49.0002 44.7393C48.4898 45.4081 47.8193 45.9378 47.0506 46.2797C46.2818 46.6216 45.4394 46.7647 44.6009 46.6959Z" fill="url(#paint7_linear_106_527)"/>
<path d="M35.2846 50.3447L36.1505 48.5428L45.1605 52.8728L44.2946 54.6747L35.2846 50.3447Z" fill="url(#paint8_linear_106_527)"/>
<path d="M45.2071 15.7928C44.6212 15.2084 43.8275 14.8802 43 14.8802C42.1725 14.8802 41.3788 15.2084 40.7929 15.7928C40.5824 16.0028 40.2973 16.1207 40 16.1207C39.7027 16.1207 39.4176 16.0028 39.2071 15.7928L38.9571 15.5428C37.6413 14.2302 35.8586 13.493 34 13.493C32.1414 13.493 30.3587 14.2302 29.0429 15.5428C28.7753 15.812 28.4569 16.0253 28.1062 16.1706C27.7555 16.3158 27.3796 16.3901 27 16.389V18.389C27.6423 18.3908 28.2786 18.2651 28.872 18.0194C29.4654 17.7736 30.0041 17.4125 30.4571 16.9572C31.3975 16.0189 32.6716 15.4919 34 15.4919C35.3284 15.4919 36.6025 16.0189 37.5429 16.9572L37.7929 17.2072C38.3788 17.7916 39.1725 18.1198 40 18.1198C40.8275 18.1198 41.6212 17.7916 42.2071 17.2072C42.4175 16.9971 42.7027 16.8791 43 16.8791C43.2973 16.8791 43.5825 16.9971 43.7929 17.2072L45.636 19.0503C49.2205 22.6546 54.0337 24.7724 59.1127 24.9799C59.5428 26.647 59.8179 28.3503 59.9344 30.068L61.9298 29.932C61.6653 25.9689 60.6091 22.0991 58.8236 18.5511L57.0364 19.4489C57.6031 20.5777 58.0924 21.7437 58.5011 22.9388C54.1733 22.5955 50.1114 20.7144 47.0502 17.636L45.2071 15.7928Z" fill="url(#paint9_linear_106_527)"/>
<path d="M36.4786 6.85327L53.1348 17.0321C53.7088 17.3847 54.385 17.5332 55.0539 17.4537C55.7228 17.3741 56.3453 17.0711 56.8206 16.5936L60.7071 12.7072C60.8946 12.5196 61 12.2652 61 12C61 11.7348 60.8946 11.4804 60.7071 11.2928L58.7071 9.29285C58.5436 9.12943 58.3286 9.02768 58.0985 9.00491C57.8685 8.98215 57.6377 9.03977 57.4453 9.16797L55 10.7981L50.4343 7.75427L52.8 4.59998C52.9444 4.4074 53.0145 4.16919 52.9975 3.92908C52.9804 3.68896 52.8773 3.46306 52.7071 3.29285L51.7071 2.29285C51.5587 2.14445 51.3673 2.04652 51.1602 2.01291C50.953 1.9793 50.7405 2.01173 50.5528 2.1056L45.0438 4.86011L43.1925 3.74927C42.2367 3.17434 41.1159 2.93601 40.0089 3.0723C38.9018 3.20858 37.8723 3.71163 37.0845 4.50122L36.2929 5.29285C36.1859 5.39982 36.1046 5.52967 36.0551 5.67262C36.0056 5.81557 35.9891 5.9679 36.007 6.11812C36.0249 6.26835 36.0766 6.41256 36.1583 6.5399C36.24 6.66724 36.3495 6.77438 36.4786 6.85327ZM42.1635 5.46435L44.4855 6.85754C44.6297 6.94407 44.7935 6.99281 44.9616 6.99925C45.1297 7.0057 45.2967 6.96964 45.4472 6.89441L50.4584 4.38879L48.2 7.40002C48.1184 7.50881 48.0599 7.6331 48.0279 7.76529C47.996 7.89749 47.9914 8.0348 48.0143 8.16884C48.0373 8.30288 48.0874 8.43082 48.1615 8.54485C48.2356 8.65888 48.3322 8.7566 48.4453 8.83202L54.4453 12.832C54.6096 12.9415 54.8026 12.9999 55 12.9999C55.1974 12.9999 55.3904 12.9415 55.5547 12.832L57.8726 11.2867L58.5858 12L55.4063 15.1794C55.2479 15.3386 55.0404 15.4396 54.8175 15.4661C54.5945 15.4926 54.3691 15.4431 54.1778 15.3256L38.6085 5.81104C39.0853 5.37914 39.6884 5.11222 40.3287 5.04978C40.9689 4.98734 41.6123 5.13271 42.1635 5.46435Z" fill="url(#paint10_linear_106_527)"/>
<defs>
<linearGradient id="paint0_linear_106_527" x1="31.2131" y1="66.0018" x2="51.3491" y2="3.56477" gradientUnits="userSpaceOnUse">
<stop stop-color="#41AFFF"/>
<stop offset="1" stop-color="#006FE9"/>
</linearGradient>
<linearGradient id="paint1_linear_106_527" x1="31.2131" y1="66.0018" x2="51.3491" y2="3.56477" gradientUnits="userSpaceOnUse">
<stop stop-color="#41AFFF"/>
<stop offset="1" stop-color="#006FE9"/>
</linearGradient>
<linearGradient id="paint2_linear_106_527" x1="31.2131" y1="66.0018" x2="51.3491" y2="3.56477" gradientUnits="userSpaceOnUse">
<stop stop-color="#41AFFF"/>
<stop offset="1" stop-color="#006FE9"/>
</linearGradient>
<linearGradient id="paint3_linear_106_527" x1="31.2131" y1="66.0018" x2="51.3491" y2="3.56477" gradientUnits="userSpaceOnUse">
<stop stop-color="#41AFFF"/>
<stop offset="1" stop-color="#006FE9"/>
</linearGradient>
<linearGradient id="paint4_linear_106_527" x1="31.2131" y1="66.0018" x2="51.3491" y2="3.56477" gradientUnits="userSpaceOnUse">
<stop stop-color="#41AFFF"/>
<stop offset="1" stop-color="#006FE9"/>
</linearGradient>
<linearGradient id="paint5_linear_106_527" x1="31.2131" y1="66.0018" x2="51.3491" y2="3.56477" gradientUnits="userSpaceOnUse">
<stop stop-color="#41AFFF"/>
<stop offset="1" stop-color="#006FE9"/>
</linearGradient>
<linearGradient id="paint6_linear_106_527" x1="31.2131" y1="66.0018" x2="51.3491" y2="3.56477" gradientUnits="userSpaceOnUse">
<stop stop-color="#41AFFF"/>
<stop offset="1" stop-color="#006FE9"/>
</linearGradient>
<linearGradient id="paint7_linear_106_527" x1="31.2131" y1="66.0018" x2="51.3491" y2="3.56477" gradientUnits="userSpaceOnUse">
<stop stop-color="#41AFFF"/>
<stop offset="1" stop-color="#006FE9"/>
</linearGradient>
<linearGradient id="paint8_linear_106_527" x1="31.2131" y1="66.0018" x2="51.3491" y2="3.56477" gradientUnits="userSpaceOnUse">
<stop stop-color="#41AFFF"/>
<stop offset="1" stop-color="#006FE9"/>
</linearGradient>
<linearGradient id="paint9_linear_106_527" x1="31.2131" y1="66.0018" x2="51.3491" y2="3.56477" gradientUnits="userSpaceOnUse">
<stop stop-color="#41AFFF"/>
<stop offset="1" stop-color="#006FE9"/>
</linearGradient>
<linearGradient id="paint10_linear_106_527" x1="31.2131" y1="66.0018" x2="51.3491" y2="3.56477" gradientUnits="userSpaceOnUse">
<stop stop-color="#41AFFF"/>
<stop offset="1" stop-color="#006FE9"/>
</linearGradient>
</defs>
</svg>
