<svg width="64" height="64" viewBox="0 0 64 64" fill="none" xmlns="http://www.w3.org/2000/svg">
<path d="M42 17C42.5523 17 43 16.5523 43 16C43 15.4477 42.5523 15 42 15C41.4477 15 41 15.4477 41 16C41 16.5523 41.4477 17 42 17Z" fill="url(#paint0_linear_107_547)"/>
<path d="M48 17C48.5523 17 49 16.5523 49 16C49 15.4477 48.5523 15 48 15C47.4477 15 47 15.4477 47 16C47 16.5523 47.4477 17 48 17Z" fill="url(#paint1_linear_107_547)"/>
<path d="M43 21H44.586C45.765 21 46.874 20.541 47.707 19.707L46.293 18.293C45.844 18.742 45.221 19 44.586 19H43V21Z" fill="url(#paint2_linear_107_547)"/>
<path d="M56.867 15.166C56.597 14.242 55.901 13.506 55 13.185V11C55 5.486 50.514 1 45 1C39.486 1 35 5.486 35 11V13.184C34.099 13.505 33.403 14.241 33.133 15.166C29.238 18.484 27 23.283 27 28.409C27 31.596 27.874 34.72 29.528 37.444L42.616 59H9C9 57.526 8.19 56.25 7 55.556V51C7 48.794 8.794 47 11 47H24.556C25.25 48.19 26.526 49 28 49C30.206 49 32 47.206 32 45C32 42.794 30.206 41 28 41C27.939 41 27.882 41.015 27.821 41.018C27.412 39.847 26.309 39 25 39H16C15.449 39 15 38.552 15 38V37.351L24.185 25.87C26 23.6 27 20.75 27 17.845C27 10.762 21.238 5 14.155 5H13.845C6.762 5 1 10.762 1 17.845C1 20.75 2 23.6 3.815 25.869L13 37.351V38C13 39.654 14.346 41 16 41H25C25.41 41 25.761 41.249 25.915 41.602C24.771 42.307 24 43.56 24 45H11C7.691 45 5 47.691 5 51V55C2.794 55 1 56.794 1 59C1 61.206 2.794 63 5 63C6.474 63 7.75 62.19 8.444 61H43.83L45 62.927L60.472 37.444C62.126 34.72 63 31.595 63 28.409C63 23.284 60.762 18.484 56.867 15.166ZM3 17.845C3 11.865 7.865 7 13.845 7H14.155C20.135 7 25 11.865 25 17.845C25 20.298 24.156 22.704 22.624 24.62L14 35.399L5.376 24.62C3.844 22.704 3 20.298 3 17.845ZM30 45C30 46.103 29.103 47 28 47C26.897 47 26 46.103 26 45C26 43.897 26.897 43 28 43C29.103 43 30 43.897 30 45ZM5 61C3.897 61 3 60.103 3 59C3 57.897 3.897 57 5 57C6.103 57 7 57.897 7 59C7 60.103 6.103 61 5 61ZM41.545 24.204L41.217 25.187C39.102 25.894 37.48 27.537 36.764 29.613C36.276 28.506 36 27.286 36 26C36 24.026 36.665 22.115 37.846 20.559C38.639 22.147 39.943 23.433 41.545 24.204ZM49 13.387V12.41L51 12.817V17C51 20.309 48.309 23 45 23C41.691 23 39 20.309 39 17V13.441C39 12.095 40.095 11 41.441 11C41.704 11 41.963 11.042 42.213 11.125L49 13.387ZM46.856 25.73L45.586 27H44.414L43.144 25.73L43.439 24.845C43.944 24.945 44.466 25 45 25C45.534 25 46.056 24.945 46.561 24.845L46.856 25.73ZM38.407 31.223C38.678 29.329 39.961 27.785 41.727 27.141L42.893 28.307L41.408 34.247C40.212 33.724 39.157 32.946 38.298 31.986L38.407 31.223ZM44.781 29H45.219L46.678 34.837C46.134 34.94 45.574 35 45 35C44.426 35 43.866 34.94 43.322 34.837L44.781 29ZM48.592 34.247L47.107 28.307L48.273 27.141C50.039 27.785 51.322 29.329 51.593 31.223L51.702 31.985C50.844 32.946 49.788 33.724 48.592 34.247ZM53.237 29.614C52.52 27.538 50.898 25.894 48.784 25.188L48.456 24.205C50.057 23.434 51.361 22.148 52.155 20.56C53.335 22.115 54 24.026 54 26C54 27.286 53.724 28.506 53.237 29.614ZM53 15H54C54.551 15 55 15.449 55 16C55 16.551 54.551 17 54 17H53V15ZM45 3C49.411 3 53 6.589 53 11V11.236C53 9.476 52.022 7.893 50.447 7.106L49.552 8.895C50.302 9.27 50.814 9.964 50.958 10.768L48.905 10.35C48.636 8.958 47.751 7.758 46.447 7.105L45.552 8.894C46.245 9.241 46.735 9.859 46.919 10.585L42.846 9.227C42.393 9.077 41.92 9 41.441 9C39.143 9 37.269 10.76 37.044 13H37V11C37 6.589 40.589 3 45 3ZM36 15H37V17H36C35.449 17 35 16.551 35 16C35 15.449 35.449 15 36 15ZM58.762 36.406L45 59.073L31.238 36.406C29.774 33.994 29 31.229 29 28.409C29 24.314 30.61 20.45 33.458 17.575C33.988 18.427 34.925 19 36 19H36.531C34.915 20.959 34 23.437 34 26C34 32.065 38.935 37 45 37C51.065 37 56 32.065 56 26C56 23.437 55.085 20.96 53.469 19H54C55.075 19 56.012 18.427 56.542 17.575C59.39 20.45 61 24.314 61 28.409C61 31.229 60.226 33.994 58.762 36.406Z" fill="url(#paint3_linear_107_547)"/>
<path d="M44 45.586L41.707 43.293L40.293 44.707L44 48.414L52.707 39.707L51.293 38.293L44 45.586Z" fill="url(#paint4_linear_107_547)"/>
<path d="M21 18C21 14.14 17.86 11 14 11C10.14 11 7 14.14 7 18C7 21.86 10.14 25 14 25C17.86 25 21 21.86 21 18ZM9 18C9 15.243 11.243 13 14 13C16.757 13 19 15.243 19 18C19 20.757 16.757 23 14 23C11.243 23 9 20.757 9 18Z" fill="url(#paint5_linear_107_547)"/>
<defs>
<linearGradient id="paint0_linear_107_547" x1="31.1869" y1="67.1335" x2="51.9932" y2="2.61661" gradientUnits="userSpaceOnUse">
<stop stop-color="#41AFFF"/>
<stop offset="1" stop-color="#006FE9"/>
</linearGradient>
<linearGradient id="paint1_linear_107_547" x1="31.1869" y1="67.1335" x2="51.9932" y2="2.61661" gradientUnits="userSpaceOnUse">
<stop stop-color="#41AFFF"/>
<stop offset="1" stop-color="#006FE9"/>
</linearGradient>
<linearGradient id="paint2_linear_107_547" x1="31.1869" y1="67.1335" x2="51.9932" y2="2.61661" gradientUnits="userSpaceOnUse">
<stop stop-color="#41AFFF"/>
<stop offset="1" stop-color="#006FE9"/>
</linearGradient>
<linearGradient id="paint3_linear_107_547" x1="31.1869" y1="67.1335" x2="51.9932" y2="2.61661" gradientUnits="userSpaceOnUse">
<stop stop-color="#41AFFF"/>
<stop offset="1" stop-color="#006FE9"/>
</linearGradient>
<linearGradient id="paint4_linear_107_547" x1="31.1869" y1="67.1335" x2="51.9932" y2="2.61661" gradientUnits="userSpaceOnUse">
<stop stop-color="#41AFFF"/>
<stop offset="1" stop-color="#006FE9"/>
</linearGradient>
<linearGradient id="paint5_linear_107_547" x1="31.1869" y1="67.1335" x2="51.9932" y2="2.61661" gradientUnits="userSpaceOnUse">
<stop stop-color="#41AFFF"/>
<stop offset="1" stop-color="#006FE9"/>
</linearGradient>
</defs>
</svg>
