<svg width="24" height="24" viewBox="0 0 24 24" fill="none" xmlns="http://www.w3.org/2000/svg">
<path fill-rule="evenodd" clip-rule="evenodd" d="M12.1467 3.61018C12.0938 3.58965 12.0373 3.58041 11.981 3.58292C11.9247 3.58543 11.8697 3.59963 11.8195 3.62451C11.7709 3.64855 11.7278 3.68209 11.6926 3.7231C10.4228 5.29782 9.54162 7.14994 9.1203 9.13001L9.11847 9.13859C8.71427 10.9596 8.71606 12.8483 9.12396 14.6705L9.12598 14.6795C9.54847 16.6521 10.4267 18.4995 11.6905 20.0737C11.7264 20.1153 11.7702 20.1492 11.8193 20.1736C11.8704 20.1989 11.926 20.2131 11.9826 20.2156C12.0392 20.2181 12.0954 20.2088 12.1478 20.1883C12.2002 20.1678 12.2477 20.1367 12.2872 20.0968L12.2901 20.0939L13.7804 18.6037C13.7862 18.5978 13.7922 18.592 13.7982 18.5863C13.8697 18.5182 13.9139 18.426 13.922 18.3268C13.93 18.2286 13.9021 18.1302 13.8428 18.0503C13.3836 17.4511 12.9933 16.8022 12.6794 16.1157L12.6784 16.1135C12.646 16.0423 12.5939 15.9817 12.5282 15.9391C12.463 15.8968 12.3875 15.874 12.3104 15.8731L11.051 15.8719C10.6016 15.8714 10.2076 15.5712 10.0881 15.1379C9.50127 13.0113 9.49897 10.7665 10.0817 8.64054C10.2009 8.20573 10.5963 7.90443 11.0471 7.90488L12.3065 7.90613C12.3835 7.90541 12.4584 7.88283 12.5225 7.84127C12.5872 7.79936 12.6385 7.73977 12.6703 7.66947L12.6713 7.66727C12.984 6.9812 13.3731 6.33272 13.8314 5.73415C13.8888 5.65645 13.9167 5.56025 13.9093 5.46286C13.9018 5.36435 13.8586 5.27144 13.7876 5.20176L13.7805 5.19488L12.288 3.70228C12.2879 3.70221 12.2881 3.70234 12.288 3.70228C12.2478 3.66216 12.1995 3.63069 12.1467 3.61018ZM11.8919 1.58491C12.2257 1.57003 12.5589 1.62482 12.8703 1.74567C13.1816 1.86652 13.4645 2.05079 13.7009 2.28673L15.1918 3.77759C15.6062 4.18585 15.8592 4.73043 15.9035 5.3108C15.9479 5.89306 15.7791 6.4717 15.428 6.93862L15.4224 6.94605C15.0545 7.42602 14.7421 7.94617 14.4912 8.49665L13.5813 8.08196L14.4922 8.49445C14.3024 8.91368 13.9962 9.26955 13.61 9.51979C13.2237 9.77003 12.7738 9.904 12.3137 9.90612L12.3081 9.90615L11.8377 9.90567C11.581 11.215 11.5825 12.5626 11.8424 13.8727L12.3216 13.8731C12.7817 13.8762 13.2312 14.011 13.617 14.2614C14.0024 14.5116 14.3083 14.8667 14.4987 15.2848C14.7507 15.8358 15.0642 16.3567 15.4331 16.8375L15.4386 16.8446C15.7936 17.3159 15.9634 17.9013 15.9154 18.4896C15.8677 19.0733 15.6088 19.6194 15.187 20.0255L13.7072 21.5053C13.7066 21.5058 13.7061 21.5064 13.7055 21.5069C13.4698 21.7441 13.1872 21.9295 12.8757 22.0512C12.5635 22.1731 12.2293 22.2285 11.8946 22.2137C11.5598 22.199 11.2318 22.1145 10.9316 21.9658C10.6314 21.8171 10.3655 21.6074 10.1508 21.3502L10.1394 21.3362C8.67697 19.5181 7.66038 17.3832 7.17125 15.1028C6.70059 12.9972 6.69841 10.8145 7.16501 8.70947C7.65283 6.42018 8.67299 4.27877 10.1431 2.45861L10.153 2.44647C10.3671 2.18982 10.6323 1.98067 10.9317 1.83234C11.2311 1.68401 11.5582 1.59978 11.8919 1.58491Z" fill="#292D32"/>
</svg>
