<svg width="46" height="32" viewBox="0 0 46 32" fill="none" xmlns="http://www.w3.org/2000/svg">
<path d="M42.5549 0.930908H3.44506C1.54235 0.930908 0 2.47326 0 4.37597V27.6239C0 29.5266 1.54235 31.069 3.44506 31.069H42.5549C44.4576 31.069 46 29.5266 46 27.6239V4.37597C46 2.47326 44.4577 0.930908 42.5549 0.930908Z" fill="#FF4B55"/>
<path d="M22.773 13.2823L24.0162 14.9086L25.9574 14.2588C26.0659 14.2225 26.1583 14.3453 26.0933 14.4394L24.9308 16.1243L26.1486 17.7697C26.2167 17.8617 26.1285 17.9874 26.0189 17.9547L24.0573 17.3697L22.8688 19.0363C22.8024 19.1294 22.6554 19.0844 22.6526 18.9701L22.6028 16.9237L20.6505 16.3084C20.5413 16.2739 20.5387 16.1204 20.6467 16.0824L22.5775 15.4026L22.5594 13.3557C22.5582 13.2413 22.7036 13.1915 22.773 13.2823Z" fill="#F5F5F5"/>
<path d="M15.8984 22.3485C12.395 22.3485 9.55302 19.5064 9.55302 15.9998C9.55302 12.4997 12.395 9.6513 15.8984 9.6513C17.2019 9.6513 18.4039 10.0522 19.4057 10.7307C19.5591 10.8345 19.7342 10.633 19.6058 10.4995C18.1088 8.94297 15.9898 7.99341 13.6404 8.07355C9.60405 8.21128 6.26259 11.4475 6.00464 15.4778C5.70924 20.0944 9.36462 23.931 13.9157 23.931C16.1576 23.931 18.1725 22.9937 19.6112 21.4952C19.7383 21.3628 19.5629 21.1643 19.4109 21.2673C18.4081 21.9472 17.2041 22.3485 15.8984 22.3485Z" fill="#F5F5F5"/>
</svg>
