<svg width="46" height="32" viewBox="0 0 46 32" fill="none" xmlns="http://www.w3.org/2000/svg">
<path d="M42.5549 0.930908H3.44506C1.54235 0.930908 0 2.47326 0 4.37597V27.6238C0 29.5263 1.54217 31.0686 3.44452 31.0689H42.5554C44.4577 31.0686 45.9999 29.5263 45.9999 27.6238V4.37597C46 2.47326 44.4577 0.930908 42.5549 0.930908Z" fill="#FF4B55"/>
<path d="M39.6551 7.27588V24.7242H6.34485V7.27588H39.6551Z" fill="#73AF00"/>
<path d="M21.4168 16.0021C21.4168 12.9991 23.4623 10.4842 26.2313 9.75572C26.3234 9.73147 26.3168 9.59814 26.2223 9.58601C25.9711 9.55366 25.7156 9.53516 25.4556 9.53516C21.8812 9.53516 18.9876 12.4283 18.9876 16.0021C18.9876 19.5605 21.8812 22.4615 25.4556 22.4615C25.716 22.4615 25.9718 22.4427 26.2233 22.4104C26.3178 22.3982 26.3243 22.2649 26.2323 22.2407C23.4627 21.5111 21.4168 18.9925 21.4168 16.0021Z" fill="#F5F5F5"/>
</svg>
