<svg width="46" height="32" viewBox="0 0 46 32" fill="none" xmlns="http://www.w3.org/2000/svg">
<path d="M42.5549 0.931152H3.44506C1.54235 0.931152 0 2.4735 0 4.37621V10.9771H46V4.37621C46 2.4735 44.4577 0.931152 42.5549 0.931152Z" fill="#FF4B55"/>
<path d="M0 27.6241C0 29.5267 1.54235 31.0692 3.44506 31.0692H42.5549C44.4576 31.0692 46 29.5268 46 27.6241V21.0232H0V27.6241Z" fill="#464655"/>
<path d="M46 10.9771H0V21.0225H46V10.9771Z" fill="#F5F5F5"/>
<path d="M25.5324 14.4342C25.5324 14.041 25.147 13.7632 24.774 13.8876L24.0728 14.1213L23.9026 13.0932C23.8008 12.4798 23.2752 12.0347 22.6532 12.0347H21.9974L21.3116 12.8788H22.2198L21.9656 14.1341L21.226 13.8876C20.8528 13.7632 20.4676 14.041 20.4676 14.4342V18.6995L21.4885 17.6787L21.0075 19.1216H20.4677V19.9658H25.5324V19.1216H24.9927L24.5116 17.6787L25.5325 18.6995V14.4342H25.5324ZM22.578 19.1215H21.8975L22.3654 17.8719L22.578 18.1433V19.1215ZM23.422 19.1215V18.1433L23.6346 17.8719L24.1025 19.1215H23.422ZM23 17.5916C23 17.5916 21.6942 16.7079 21.7471 15.0593C21.7471 15.0593 22.5517 14.9274 23 14.2151C23.4484 14.9273 24.2531 15.0593 24.2531 15.0593C24.3058 16.708 23 17.5916 23 17.5916Z" fill="#F0C727"/>
</svg>
