<svg width="46" height="32" viewBox="0 0 46 32" fill="none" xmlns="http://www.w3.org/2000/svg">
<path d="M42.559 0.933105H3.44102C1.53633 0.933105 0 2.47842 0 4.37412V27.6257C0 29.5304 1.54531 31.0667 3.44102 31.0667H42.55C44.4547 31.0667 45.991 29.5214 45.991 27.6257V4.37412C46 2.46943 44.4547 0.933105 42.559 0.933105Z" fill="#F5F5F5"/>
<path d="M0 27.6257C0 29.5304 1.54531 31.0667 3.44102 31.0667H42.55C44.4547 31.0667 45.991 29.5214 45.991 27.6257V26.314H0V27.6257Z" fill="#FF4B55"/>
<path d="M42.559 0.933105H3.44102C1.53633 0.933105 0 2.47842 0 4.37412V5.68584H46V4.37412C46 2.46943 44.4547 0.933105 42.559 0.933105Z" fill="#FF4B55"/>
<path d="M46 10.4475H0V21.5522H46V10.4475Z" fill="#41479B"/>
</svg>
